<?xml version="1.0" standalone="no"?>
<!DOCTYPE svg PUBLIC "-//W3C//DTD SVG 20010904//EN"
 "http://www.w3.org/TR/2001/REC-SVG-20010904/DTD/svg10.dtd">
<svg version="1.0" xmlns="http://www.w3.org/2000/svg"
 width="500.000000pt" height="500.000000pt" viewBox="0 0 500.000000 500.000000"
 preserveAspectRatio="xMidYMid meet">

<g transform="translate(0.000000,500.000000) scale(0.100000,-0.100000)"
fill="#000000" stroke="none">
<path d="M2430 3734 c-290 -25 -443 -48 -620 -95 -289 -76 -513 -200 -585
-323 -56 -96 -55 -76 -55 -929 0 -871 -2 -848 63 -944 187 -278 944 -458 1692
-403 615 46 1048 211 1180 448 l35 64 0 828 0 828 -36 71 c-23 45 -54 87 -87
116 -172 155 -500 268 -932 321 -122 14 -555 27 -655 18z"/>
</g>
</svg>
