<?xml version="1.0" standalone="no"?>
<!DOCTYPE svg PUBLIC "-//W3C//DTD SVG 20010904//EN"
 "http://www.w3.org/TR/2001/REC-SVG-20010904/DTD/svg10.dtd">
<svg version="1.0" xmlns="http://www.w3.org/2000/svg"
 width="500.000000pt" height="500.000000pt" viewBox="0 0 500.000000 500.000000"
 preserveAspectRatio="xMidYMid meet">

<g transform="translate(0.000000,500.000000) scale(0.100000,-0.100000)"
fill="#000000" stroke="none">
<path d="M4084 1946 c-21 -19 -67 -61 -101 -93 -357 -338 -1538 -441 -2278
-198 -207 67 -299 120 -422 239 l-73 69 0 -130 0 -131 56 -57 c376 -382 1629
-499 2409 -225 164 58 278 125 377 222 l88 86 0 126 c0 69 -4 126 -8 126 -5 0
-26 -15 -48 -34z"/>
</g>
</svg>
